{"title":"House Of Demons 2018 Movies DVDRip x264 5.1 AAC +Sample ☻rDX☻","magnet":"magnet:?xt=urn:btih:93b7f15b252e278c4381dbb9212869222c94e9b8&dn=House+Of+Demons+2018+Movies+DVDRip+x264+5.1+AAC+%2BSample+%E2%98%BBrDX%E2%98%BB&tr=udp%3A%2F%2Ftracker.leechers-paradise.org%3A6969&tr=udp%3A%2F%2Fzer0day.ch%3A1337&tr=udp%3A%2F%2Fopen.demonii.com%3A1337&tr=udp%3A%2F%2Ftracker.coppersurfer.tk%3A6969&tr=udp%3A%2F%2Fexodus.desync.com%3A6969","uploader":"basicssom","categoryP":"video","categoryS":"movies","size":"739647421","seeders":"0","leechers":"153","description":"----------------------------------------------------------------\r\nHouse Of Demons 2018 Movies DVDRip x264 5.1 AAC with Sample &#x263B;rDX&#x263B;\r\n\r\nSCREEN SHOTS &amp; POSTER:\r\n   <a href=\"\nhttp://postimage.co.nr/2018/1/a/blackberry/index.html\" rel=\"nofollow\" target=\"_NEW\">\nhttp://postimage.co.nr/2018/1/a/blackberry/index.html</a> <a href=\"\nhttp://postimage.co.nr/2018/1/a/blackberry/1.html\" rel=\"nofollow\" target=\"_NEW\">\nhttp://postimage.co.nr/2018/1/a/blackberry/1.html</a> <a href=\"\nhttp://postimage.co.nr/2018/1/a/blackberry/2.html\" rel=\"nofollow\" target=\"_NEW\">\nhttp://postimage.co.nr/2018/1/a/blackberry/2.html</a>   <a href=\"\nhttp://postimage.co.nr/2018/1/a/blackberry/3.html\" rel=\"nofollow\" target=\"_NEW\">\nhttp://postimage.co.nr/2018/1/a/blackberry/3.html</a>   <a href=\"\nhttp://postimage.co.nr/2018/1/a/blackberry/4.html\" rel=\"nofollow\" target=\"_NEW\">\nhttp://postimage.co.nr/2018/1/a/blackberry/4.html</a>   <a href=\"\nhttp://postimage.co.nr/2018/1/a/blackberry/5.html\" rel=\"nofollow\" target=\"_NEW\">\nhttp://postimage.co.nr/2018/1/a/blackberry/5.html</a>   <a href=\"\nhttp://postimage.co.nr/2018/1/a/blackberry/6.html\" rel=\"nofollow\" target=\"_NEW\">\nhttp://postimage.co.nr/2018/1/a/blackberry/6.html</a>   <a href=\"\nhttp://postimage.co.nr/2018/1/a/blackberry/7.html\" rel=\"nofollow\" target=\"_NEW\">\nhttp://postimage.co.nr/2018/1/a/blackberry/7.html</a>   <a href=\"\nhttp://postimage.co.nr/2018/1/a/blackberry/8.html\" rel=\"nofollow\" target=\"_NEW\">\nhttp://postimage.co.nr/2018/1/a/blackberry/8.html</a>   <a href=\"\nhttp://postimage.co.nr/2018/1/a/blackberry/9.html\" rel=\"nofollow\" target=\"_NEW\">\nhttp://postimage.co.nr/2018/1/a/blackberry/9.html</a>   <a href=\"\nhttp://postimage.co.nr/2018/1/a/blackberry/10.html\" rel=\"nofollow\" target=\"_NEW\">\nhttp://postimage.co.nr/2018/1/a/blackberry/10.html</a>\r\n\r\nFile size                                : 698 MiB\r\nDuration                                 : 1 h 29 min\r\nOverall bit rate mode                    : Constant\r\nOverall bit rate                         : 1 092 kb/s\r\nMovie name                               : House Of Demons 2018 Movies DVDRip x264 5.1 AAC &#x263B;rDX&#x263B;\r\n\r\nVideo\r\nID                                       : 2\r\nFormat                                   : AVC\r\nFormat/Info                              : Advanced Video Codec\r\nFormat profile                           : <a href=\"/cdn-cgi/l/email-protection\" class=\"__cf_email__\" data-cfemail=\"713c10181f313d42\">[email&#xA0;protected]</a>\r\nFormat settings, CABAC                   : Yes\r\nFormat settings, ReFrames                : 2 frames\r\nFormat settings, GOP                     : M=1, N=12\r\nCodec ID                                 : V_MPEG4/ISO/AVC\r\nDuration                                 : 1 h 29 min\r\nBit rate mode                            : Constant\r\nBit rate                                 : 645 kb/s\r\nWidth                                    : 720 pixels\r\nHeight                                   : 384 pixels\r\nDisplay aspect ratio                     : 1.85:1\r\nFrame rate mode                          : Constant\r\nFrame rate                               : 23.976 (24000/1001) FPS\r\nColor space                              : YUV\r\nChroma subsampling                       : 4:2:0\r\nBit depth                                : 8 bits\r\nScan type                                : Progressive\r\nBits/(Pixel*Frame)                       : 0.097\r\nStream size                              : 398 MiB (57%)\r\nTitle                                    : &#x263B;rDX&#x263B;\r\nDefault                                  : Yes\r\nForced                                   : No\r\n\r\nAudio\r\nID                                       : 1\r\nFormat                                   : AC-3\r\nFormat/Info                              : Audio Coding 3\r\nMode extension                           : CM (complete main)\r\nFormat settings, Endianness              : Big\r\nCodec ID                                 : A_AC3\r\nDuration                                 : 1 h 29 min\r\nBit rate mode                            : Constant\r\nBit rate                                 : 448 kb/s\r\nChannel(s)                               : 6 channels\r\nChannel positions                        : Front: L C R, Side: L R, LFE\r\nSampling rate                            : 48.0 kHz\r\nFrame rate                               : 31.250 FPS (1536 spf)\r\nBit depth                                : 16 bits\r\nCompression mode                         : Lossy\r\nStream size                              : 287 MiB (41%)\r\nTitle                                    : &#x263B;rDX&#x263B;\r\nDefault                                  : Yes\r\nForced                                   : No","last_updated":"2018-01-31T12:14:13.556Z","parsed":{"xt":"urn:btih:93b7f15b252e278c4381dbb9212869222c94e9b8","dn":"House Of Demons 2018 Movies DVDRip x264 5.1 AAC  Sample ☻rDX☻","tr":["udp://exodus.desync.com:6969","udp://open.demonii.com:1337","udp://tracker.coppersurfer.tk:6969","udp://tracker.leechers-paradise.org:6969","udp://zer0day.ch:1337"],"infoHash":"93b7f15b252e278c4381dbb9212869222c94e9b8","infoHashBuffer":{"type":"Buffer","data":[147,183,241,91,37,46,39,140,67,129,219,185,33,40,105,34,44,148,233,184]},"name":"House Of Demons 2018 Movies DVDRip x264 5.1 AAC  Sample ☻rDX☻","announce":["udp://exodus.desync.com:6969","udp://open.demonii.com:1337","udp://tracker.coppersurfer.tk:6969","udp://tracker.leechers-paradise.org:6969","udp://zer0day.ch:1337"],"urlList":[]}}